<svg width="11" height="11" viewBox="0 0 11 11" fill="none" xmlns="http://www.w3.org/2000/svg">
<g clip-path="url(#clip0_2_97)">
<path d="M4.16625 4.125C4.27401 3.81869 4.4867 3.56039 4.76665 3.39586C5.0466 3.23133 5.37574 3.17119 5.69579 3.22608C6.01584 3.28098 6.30613 3.44737 6.51524 3.69579C6.72436 3.94421 6.83882 4.25862 6.83833 4.58334C6.83833 5.5 5.46333 5.95834 5.46333 5.95834M5.5 7.79167H5.50458M10.0833 5.5C10.0833 8.03131 8.03131 10.0833 5.5 10.0833C2.9687 10.0833 0.916668 8.03131 0.916668 5.5C0.916668 2.9687 2.9687 0.916672 5.5 0.916672C8.03131 0.916672 10.0833 2.9687 10.0833 5.5Z" stroke="#1E1E1E" stroke-linecap="round" stroke-linejoin="round"/>
</g>
<defs>
<clipPath id="clip0_2_97">
<rect width="11" height="11" fill="white"/>
</clipPath>
</defs>
</svg>
